<svg width="18" height="24" viewBox="0 0 18 24" fill="none" xmlns="http://www.w3.org/2000/svg">
<path d="M8.82369 23.8C6.10972 20.0222 2.87664 15.7886 1.13194 12.75H15.875L8.82369 23.8Z" fill="white"/>
<path fill-rule="evenodd" clip-rule="evenodd" d="M8.50692 17C13.2044 17 17.0125 13.1944 17.0125 8.5C17.0125 3.80558 13.2044 0 8.50692 0C3.80941 0 0.00131989 3.80558 0.00131989 8.5C0.00131989 13.1944 3.80941 17 8.50692 17ZM8.50496 12.75C10.8537 12.75 12.7578 10.8472 12.7578 8.5C12.7578 6.15279 10.8537 4.25 8.50496 4.25C6.1562 4.25 4.25216 6.15279 4.25216 8.5C4.25216 10.8472 6.1562 12.75 8.50496 12.75Z" fill="white"/>
</svg>
