<svg width="24" height="16" viewBox="0 0 24 16" fill="none" xmlns="http://www.w3.org/2000/svg">
<path d="M2.30151 16C1.6686 16 1.12697 15.8043 0.676645 15.413C0.225548 15.021 0 14.55 0 14V2C0 1.45 0.225548 0.979333 0.676645 0.588C1.12697 0.196 1.6686 0 2.30151 0H20.7136C21.3465 0 21.8885 0.196 22.3396 0.588C22.79 0.979333 23.0151 1.45 23.0151 2V14C23.0151 14.55 22.79 15.021 22.3396 15.413C21.8885 15.8043 21.3465 16 20.7136 16H2.30151ZM11.5076 8.825C11.6035 8.825 11.704 8.81233 11.8091 8.787C11.9149 8.76233 12.0158 8.725 12.1117 8.675L20.2533 4.25C20.4068 4.16667 20.5218 4.06267 20.5986 3.938C20.6753 3.81267 20.7136 3.675 20.7136 3.525C20.7136 3.19167 20.5506 2.94167 20.2246 2.775C19.8985 2.60833 19.5629 2.61667 19.2176 2.8L11.5076 7L3.7975 2.8C3.45227 2.61667 3.11663 2.61233 2.79059 2.787C2.46454 2.96233 2.30151 3.20833 2.30151 3.525C2.30151 3.69167 2.33987 3.83733 2.41659 3.962C2.49331 4.08733 2.60838 4.18333 2.76182 4.25L10.9034 8.675C10.9993 8.725 11.1002 8.76233 11.2061 8.787C11.3112 8.81233 11.4117 8.825 11.5076 8.825Z" fill="white"/>
</svg>
